<svg width="24" height="20" viewBox="0 0 24 20" fill="none" xmlns="http://www.w3.org/2000/svg">
<path d="M23.9887 6.5337C23.8982 4.84215 23.1821 3.2538 21.9722 2.06121C20.7442 0.850718 19.1405 0.184052 17.4567 0.184052C14.9353 0.184052 13.1501 2.13158 12.1911 3.17794C12.1365 3.23743 12.0779 3.30136 12.0206 3.36316C11.9899 3.32831 11.9594 3.29356 11.9303 3.26044C11.0537 2.26184 9.22935 0.184052 6.54362 0.184052C4.85987 0.184052 3.25631 0.850718 2.02829 2.06121C0.818281 3.2538 0.102131 4.84215 0.0116381 6.5337C-0.0782777 8.21524 0.349255 9.6744 1.39753 11.265C2.33703 12.6908 4.78362 14.9452 6.5932 16.4423C8.45313 17.9813 10.9029 19.8158 12.0105 19.8158C13.1355 19.8158 15.5766 17.9852 17.4262 16.4495C19.2217 14.9587 21.6549 12.7062 22.6031 11.2644C23.3087 10.1916 24.1039 8.68427 23.9887 6.5337ZM21.3967 10.4709C20.7077 11.5188 18.7655 13.4548 16.5638 15.2886C13.9387 17.4753 12.3844 18.3371 12.0116 18.3714C11.6395 18.3326 10.0813 17.4621 7.44336 15.2714C5.22877 13.4323 3.28374 11.5028 2.60331 10.4704C1.73583 9.15416 1.38126 7.96388 1.45356 6.61072C1.60057 3.86328 3.88398 1.628 6.54353 1.628C8.57549 1.628 10.0519 3.30964 10.8451 4.21293C11.3115 4.74415 11.5684 5.03671 12.0003 5.03671C12.4461 5.03671 12.7337 4.72297 13.2556 4.15353C14.1215 3.20884 15.5706 1.628 17.4567 1.628C20.1164 1.628 22.3997 3.86328 22.5468 6.61072C22.62 7.97919 22.276 9.13375 21.3967 10.4709Z" fill="#1D1D1B"/>
</svg>
