<svg width="16" height="16" viewBox="0 0 16 16" fill="none" xmlns="http://www.w3.org/2000/svg">
<g clip-path="url(#clip0_1_172)">
<path d="M14.0675 8.51974C14.4994 8.0878 14.7103 7.48216 14.64 6.87537L14.3698 4.54298C15.8609 3.46242 16.479 1.64906 15.586 0.75599C15.2046 0.374642 14.6087 0.250252 13.9511 0.414681C13.3686 0.560311 12.7711 0.917123 12.2689 1.41932C12.2628 1.42555 12.257 1.43189 12.2509 1.438L8.80303 1.03855C8.19623 0.968246 7.59057 1.17911 7.15863 1.61106L1.41419 7.35558C0.633154 8.13663 0.633158 9.40296 1.4142 10.184L5.49449 14.2643C6.27554 15.0453 7.54187 15.0453 8.32292 14.2643L14.0675 8.51974ZM14.1786 1.32484C14.5088 1.24232 14.7799 1.27674 14.9225 1.41932C15.2697 1.76649 14.9517 2.72914 14.2406 3.42872C14.2406 3.42872 14.2849 2.82315 14.1314 2.48573C13.9558 2.09995 13.3639 1.71827 13.3639 1.71827C13.6317 1.5287 13.9135 1.39112 14.1786 1.32484ZM7.84318 2.2534C8.05915 2.03743 8.36197 1.932 8.66537 1.96715L11.5895 2.30592C11.4463 2.55873 11.3384 2.81825 11.2714 3.07545C11.0896 2.89363 10.7935 2.89485 10.6117 3.07667C10.4285 3.25984 10.4273 3.55805 10.6105 3.74123L11.9372 5.06807C12.1204 5.25128 12.4175 5.25128 12.6007 5.06808C12.7839 4.88487 12.7839 4.58783 12.6006 4.40464L12.2689 4.07301C12.1264 3.93043 12.0919 3.65932 12.1745 3.32912C12.2481 3.03468 12.4094 2.71998 12.6323 2.42665L12.7604 2.44154L13.2371 2.91823L13.7115 7.01313C13.7466 7.31653 13.6412 7.61935 13.4252 7.83532L7.61581 13.6446C7.22529 14.0351 6.59212 14.0351 6.2016 13.6446L2.03389 9.4769C1.64337 9.08638 1.64337 8.45322 2.03389 8.06269L7.84318 2.2534Z" fill="#E0001B"/>
<path d="M5.17883 6.94112C4.40295 6.94112 3.77161 7.57246 3.77161 8.34846C3.77161 9.12434 4.40295 9.75569 5.17883 9.75569C5.95483 9.75569 6.58618 9.12434 6.58618 8.34846C6.58618 7.57246 5.95483 6.94112 5.17883 6.94112ZM5.17883 8.81746C4.92017 8.81746 4.70984 8.60701 4.70984 8.34846C4.70984 8.0898 4.92017 7.87935 5.17883 7.87935C5.4375 7.87935 5.64795 8.0898 5.64795 8.34846C5.64795 8.60701 5.43762 8.81746 5.17883 8.81746Z" fill="#E0001B"/>
<path d="M9.86979 9.75569C10.6458 9.75569 11.2772 9.12434 11.2772 8.34846C11.2772 7.57246 10.6458 6.94112 9.86979 6.94112C9.09379 6.94112 8.46255 7.57246 8.46255 8.34846C8.46255 9.12434 9.09379 9.75569 9.86979 9.75569ZM9.86979 7.87935C10.1285 7.87935 10.3389 8.0898 10.3389 8.34846C10.3389 8.60701 10.1285 8.81746 9.86979 8.81746C9.61112 8.81746 9.40067 8.60701 9.40067 8.34846C9.40067 8.0898 9.61112 7.87935 9.86979 7.87935Z" fill="#E0001B"/>
<path d="M7.45365 5.91958C7.49624 5.66405 7.73791 5.49142 7.99344 5.53399C8.249 5.57657 8.42165 5.81826 8.37906 6.07382L7.59507 10.7775C7.55248 11.0331 7.31077 11.2057 7.05521 11.1631C6.79968 11.1205 6.62706 10.8788 6.66965 10.6233L7.45365 5.91958Z" fill="#E0001B"/>
</g>
<defs>
<clipPath id="clip0_1_172">
<rect width="16" height="16" fill="white"/>
</clipPath>
</defs>
</svg>
