<svg width="24" height="24" viewBox="0 0 24 24" fill="none" xmlns="http://www.w3.org/2000/svg">
<g clip-path="url(#clip0_1_138)">
<path d="M23.2961 1.72758H18.9748C18.1499 1.72758 17.328 2.34943 17.1038 3.14331L15.9365 7.27485C15.803 7.23769 15.6625 7.2162 15.5163 7.2162H1.55462C1.11034 7.2162 0.688481 7.40052 0.397265 7.72186C0.106049 8.04311 -0.0358514 8.48101 0.00778875 8.92314L0.658918 15.5234C0.745729 16.4031 1.5061 17.0921 2.39007 17.0921H13.2263C14.0547 17.0921 14.873 16.4656 15.0892 15.666L16.4466 10.6466L18.4585 3.52612C18.5132 3.33251 18.7737 3.13542 18.9748 3.13542H23.2961C23.6849 3.13542 24 2.82037 24 2.43155C24 2.04273 23.6849 1.72758 23.2961 1.72758ZM13.7303 15.2986C13.6787 15.4897 13.4243 15.6843 13.2263 15.6843H2.38998C2.2355 15.6843 2.07502 15.539 2.05981 15.3852L1.40868 8.78489C1.4039 8.736 1.41478 8.69527 1.4404 8.66711C1.46603 8.63886 1.50544 8.62394 1.55453 8.62394H15.5162C15.523 8.62394 15.529 8.62422 15.5343 8.6246C15.5333 8.62986 15.5319 8.63567 15.5302 8.64224L13.7303 15.2986Z" fill="#000002"/>
<path d="M4.44455 17.8938C3.23736 17.8938 2.25513 18.8759 2.25513 20.0831C2.25513 21.2903 3.23726 22.2724 4.44455 22.2724C5.65174 22.2724 6.63387 21.2903 6.63387 20.0831C6.63387 18.8759 5.65183 17.8938 4.44455 17.8938ZM4.44455 20.8647C4.01359 20.8647 3.66287 20.5141 3.66287 20.0831C3.66287 19.6521 4.0135 19.3015 4.44455 19.3015C4.8755 19.3015 5.22613 19.6521 5.22613 20.0831C5.22613 20.5141 4.8756 20.8647 4.44455 20.8647Z" fill="#000002"/>
<path d="M11.3866 17.8938C10.1794 17.8938 9.19727 18.8759 9.19727 20.0831C9.19727 21.2903 10.1794 22.2724 11.3866 22.2724C12.5938 22.2724 13.576 21.2903 13.576 20.0831C13.576 18.8759 12.5938 17.8938 11.3866 17.8938ZM11.3866 20.8647C10.9556 20.8647 10.605 20.5141 10.605 20.0831C10.605 19.6521 10.9556 19.3015 11.3866 19.3015C11.8175 19.3015 12.1683 19.6521 12.1683 20.0831C12.1683 20.5141 11.8175 20.8647 11.3866 20.8647Z" fill="#000002"/>
</g>
<defs>
<clipPath id="clip0_1_138">
<rect width="24" height="24" fill="white"/>
</clipPath>
</defs>
</svg>
