<svg width="16" height="16" viewBox="0 0 16 16" fill="none" xmlns="http://www.w3.org/2000/svg">
<g clip-path="url(#clip0_1_163)">
<path d="M14.7163 7.21904C14.7163 6.44365 14.0854 5.81279 13.31 5.81279H12.9722L13.5456 3.67278C13.5715 3.5761 13.5658 3.47344 13.5292 3.38018L12.6067 1.0302C12.5522 0.891652 12.4354 0.787159 12.2916 0.748707C12.1479 0.710133 11.9944 0.742115 11.878 0.834889L9.90417 2.40886C9.8258 2.47136 9.76952 2.5573 9.74364 2.6541L8.89721 5.81279H7.83825L4.8634 0.660084C4.682 0.346119 4.38379 0.125538 4.02356 0.0388685C3.67224 -0.0454821 3.30432 0.00859506 2.98755 0.191578C2.45398 0.499562 2.19543 1.09856 2.30664 1.65508L1.54687 2.09368C1.43921 2.15581 1.36072 2.25811 1.32849 2.37822C1.29626 2.49834 1.31311 2.62627 1.37536 2.73394L2.53283 4.73894C2.61975 4.88933 2.77722 4.97344 2.93921 4.97344C3.0188 4.97344 3.09936 4.95317 3.17321 4.91045C3.39734 4.78106 3.47424 4.49443 3.34472 4.27019L2.42151 2.67119L2.71582 2.50127L3.00683 3.00554H3.00696V3.00566L4.62768 5.81279H4.43274C3.65735 5.81279 3.02649 6.44365 3.02649 7.21904C3.02649 7.97344 3.62378 8.59075 4.37024 8.62358V13.7172C4.37024 14.976 5.43566 16 6.74523 16H10.9975C12.3071 16 13.3727 14.976 13.3727 13.7172V8.62358C14.1191 8.59075 14.7163 7.97344 14.7163 7.21904ZM11.9659 1.96379L12.6001 3.57915L12.5592 3.73198L10.5682 3.19854L10.6091 3.0457L11.9659 1.96379ZM10.3256 4.10405L12.3165 4.6375L12.0016 5.81279H9.86767L10.3256 4.10405ZM3.4563 1.00347C3.56408 0.941212 3.68774 0.922291 3.80444 0.950367C3.91235 0.976368 4 1.03972 4.05151 1.12883L4.36865 1.67815L3.58447 2.13091L3.26733 1.58159C3.15722 1.39092 3.24377 1.12615 3.4563 1.00347ZM4.05322 2.9428L4.8374 2.49004L6.75573 5.81279H5.71008L4.05322 2.9428ZM12.4352 13.7172C12.4352 14.459 11.7903 15.0625 10.9975 15.0625H6.74523C5.95251 15.0625 5.30773 14.459 5.30773 13.7172V8.62517H12.4352V13.7172ZM13.31 7.68767H4.43274C4.17431 7.68767 3.96399 7.47747 3.96399 7.21904C3.96399 6.9605 4.17431 6.75029 4.43274 6.75029H9.25341C9.25463 6.75029 9.25585 6.75042 9.25719 6.75042C9.25817 6.75042 9.25915 6.75029 9.26012 6.75029H13.31C13.5686 6.75029 13.7788 6.9605 13.7788 7.21904C13.7788 7.47747 13.5686 7.68767 13.31 7.68767Z" fill="#1D1D1B"/>
</g>
<defs>
<clipPath id="clip0_1_163">
<rect width="16" height="16" fill="white"/>
</clipPath>
</defs>
</svg>
